# xmcd
#
# Track frame offsets:
#	150
#	23295
#	45946
#	71045
#	92082
#	112103
#	135680
#	156115
#	182990
#	206371
#	233360
#	257196
#	276897
#
# Disc length: 3960 seconds
# Revision: 0
# Processed by: cddbd v1.5.2PL0 Copyright (c) Steve Scherf et al.
# Submitted via: dBpowerAMP V12.0
#
DISCID=aa0f760d
DTITLE=Ray Bradbury - Farenheit 451 CD3
DYEAR=2008
DGENRE=Hörbuch
TTITLE0=29 Das Sieb und der Sand
TTITLE1=30 Das Sieb und der Sand
TTITLE2=31 Das Sieb und der Sand
TTITLE3=32 Das Sieb und der Sand
TTITLE4=33 Das Sieb und der Sand
TTITLE5=34 Das Sieb und der Sand
TTITLE6=35 Das Sieb und der Sand
TTITLE7=36 Das Sieb und der Sand
TTITLE8=37 Das Sieb und der Sand
TTITLE9=38 Das Sieb und der Sand
TTITLE10=39 Das Sieb und der Sand
TTITLE11=40 Das Sieb und der Sand
TTITLE12=41 Das Sieb und der Sand
EXTD=
EXTT0=
EXTT1=
EXTT2=
EXTT3=
EXTT4=
EXTT5=
EXTT6=
EXTT7=
EXTT8=
EXTT9=
EXTT10=
EXTT11=
EXTT12=
PLAYORDER=
